<?xml version="1.0" encoding="utf-8"?>
<!-- Generator: Adobe Illustrator 25.2.3, SVG Export Plug-In . SVG Version: 6.00 Build 0)  -->
<svg version="1.1" id="Layer_1" xmlns="http://www.w3.org/2000/svg" xmlns:xlink="http://www.w3.org/1999/xlink" x="0px" y="0px"
	 viewBox="0 0 588.18 1176.36" style="enable-background:new 0 0 588.18 1176.36;" xml:space="preserve">
<style type="text/css">
	.st0{fill-rule:evenodd;clip-rule:evenodd;fill:#6F00FF;}
</style>
<path class="st0" d="M147.04,882.27C65.83,882.27,0,948.11,0,1029.32c0,81.21,65.83,147.04,147.04,147.04
	s147.04-65.84,147.04-147.04C294.09,948.11,228.25,882.27,147.04,882.27 M147.04,1101.5c-39.87,0-72.18-32.32-72.18-72.18
	c0-39.87,32.32-72.18,72.18-72.18s72.18,32.32,72.18,72.18C219.23,1069.18,186.91,1101.5,147.04,1101.5"/>
<path class="st0" d="M441.13,882.27c-81.21,0-147.04,65.84-147.04,147.05c0,81.21,65.83,147.04,147.04,147.04
	s147.04-65.84,147.04-147.04C588.18,948.11,522.34,882.27,441.13,882.27 M441.13,1101.5c-39.87,0-72.18-32.32-72.18-72.18
	c0-39.87,32.32-72.18,72.18-72.18s72.18,32.32,72.18,72.18C513.32,1069.18,481,1101.5,441.13,1101.5"/>
<path class="st0" d="M147.04,294.09C65.83,294.09,0,359.93,0,441.14c0,81.21,65.83,147.04,147.04,147.04s147.04-65.84,147.04-147.04
	C294.09,359.93,228.25,294.09,147.04,294.09 M147.04,513.32c-39.87,0-72.18-32.32-72.18-72.18c0-39.87,32.32-72.18,72.18-72.18
	s72.18,32.32,72.18,72.18C219.23,481,186.91,513.32,147.04,513.32"/>
<path class="st0" d="M441.13,294.09c-81.21,0-147.04,65.84-147.04,147.05c0,81.21,65.83,147.04,147.04,147.04
	s147.04-65.84,147.04-147.04C588.18,359.93,522.34,294.09,441.13,294.09 M441.13,513.32c-39.87,0-72.18-32.32-72.18-72.18
	c0-39.87,32.32-72.18,72.18-72.18s72.18,32.32,72.18,72.18C513.32,481,481,513.32,441.13,513.32"/>
<path class="st0" d="M147.04,0C65.83,0,0,65.84,0,147.05c0,81.21,65.83,147.04,147.04,147.04s147.04-65.84,147.04-147.04
	C294.09,65.84,228.25,0,147.04,0 M147.04,219.23c-39.87,0-72.18-32.32-72.18-72.18c0-39.87,32.32-72.18,72.18-72.18
	s72.18,32.32,72.18,72.18C219.23,186.91,186.91,219.23,147.04,219.23"/>
<path class="st0" d="M441.13,0c-81.21,0-147.04,65.84-147.04,147.05c0,81.21,65.83,147.04,147.04,147.04s147.04-65.84,147.04-147.04
	C588.18,65.84,522.34,0,441.13,0 M441.13,219.23c-39.87,0-72.18-32.32-72.18-72.18c0-39.87,32.32-72.18,72.18-72.18
	s72.18,32.32,72.18,72.18C513.32,186.91,481,219.23,441.13,219.23"/>
<path class="st0" d="M147.04,588.18C65.83,588.18,0,654.02,0,735.23c0,81.21,65.83,147.04,147.04,147.04s147.04-65.84,147.04-147.04
	C294.09,654.02,228.25,588.18,147.04,588.18 M147.04,807.41c-39.87,0-72.18-32.32-72.18-72.18c0-39.87,32.32-72.18,72.18-72.18
	s72.18,32.32,72.18,72.18C219.23,775.09,186.91,807.41,147.04,807.41"/>
<path class="st0" d="M441.13,588.18c-81.21,0-147.04,65.84-147.04,147.05c0,81.21,65.83,147.04,147.04,147.04
	s147.04-65.84,147.04-147.04C588.18,654.02,522.34,588.18,441.13,588.18 M441.13,807.41c-39.87,0-72.18-32.32-72.18-72.18
	c0-39.87,32.32-72.18,72.18-72.18s72.18,32.32,72.18,72.18C513.32,775.09,481,807.41,441.13,807.41"/>
</svg>
