<?xml version="1.0" encoding="utf-8"?>
<!-- Generator: Adobe Illustrator 25.2.3, SVG Export Plug-In . SVG Version: 6.00 Build 0)  -->
<svg version="1.1" id="Layer_1" xmlns="http://www.w3.org/2000/svg" xmlns:xlink="http://www.w3.org/1999/xlink" x="0px" y="0px"
	 viewBox="0 0 254.57 132.2" style="enable-background:new 0 0 254.57 132.2;" xml:space="preserve">
<style type="text/css">
	.st0{fill:#f58ec8;}
</style>
<path class="st0" d="M127.29,132.2C57.1,132.2,0,75.1,0,4.91V0h72.13v4.91c0,30.41,24.74,55.16,55.16,55.16
	c30.41,0,55.16-24.74,55.16-55.16V0h72.13v4.91C254.57,75.1,197.47,132.2,127.29,132.2 M9.93,9.83
	c2.58,62.5,54.23,112.54,117.35,112.54c63.12,0,114.77-50.04,117.36-112.54h-52.55c-2.52,33.55-30.62,60.07-64.8,60.07
	S65,43.38,62.49,9.83H9.93z"/>
</svg>
