<?xml version="1.0" encoding="utf-8"?>
<!-- Generator: Adobe Illustrator 25.2.3, SVG Export Plug-In . SVG Version: 6.00 Build 0)  -->
<svg version="1.1" id="Layer_1" xmlns="http://www.w3.org/2000/svg" xmlns:xlink="http://www.w3.org/1999/xlink" x="0px" y="0px"
	 viewBox="0 0 254.57 254.57" style="enable-background:new 0 0 254.57 254.57;" xml:space="preserve">
<style type="text/css">
	.st0{fill:#FFFFFF;}
</style>
<path class="st0" d="M127.29,254.57C57.1,254.57,0,197.47,0,127.29S57.1,0,127.29,0s127.29,57.1,127.29,127.29
	S197.47,254.57,127.29,254.57 M127.29,9.83C62.52,9.83,9.83,62.52,9.83,127.29s52.69,117.46,117.46,117.46
	c64.77,0,117.46-52.69,117.46-117.46S192.05,9.83,127.29,9.83 M127.29,192.27c-35.83,0-64.99-29.15-64.99-64.99
	S91.45,62.3,127.29,62.3c35.83,0,64.98,29.15,64.98,64.99S163.12,192.27,127.29,192.27 M127.29,72.13
	c-30.41,0-55.16,24.74-55.16,55.16s24.74,55.16,55.16,55.16s55.16-24.74,55.16-55.16S157.7,72.13,127.29,72.13"/>
</svg>
